<svg id="Layer_1" enable-background="new 0 0 512.749 512.749" height="512" viewBox="0 0 512.749 512.749" width="512" xmlns="http://www.w3.org/2000/svg"><g><path fill="#9ea9b4" d="m83.274 77.971c-10.288 0-18.658 8.37-18.658 18.658s8.37 18.658 18.658 18.658 18.658-8.37 18.658-18.658-8.37-18.658-18.658-18.658z"/><path fill="#9ea9b4" d="m154.514 143.91c8.549-14.292 13.231-30.564 13.599-47.191 1.011-45.672-35.016-84.327-80.664-86.126-47.889-1.887-87.449 36.524-87.449 84.001v.42c0 17.128 4.594 33.985 13.284 48.745l65.891 111.906c1.898 3.224 6.556 3.24 8.476.029zm-123.93-47.281c0-29.054 23.637-52.69 52.691-52.69s52.69 23.636 52.69 52.69-23.636 52.69-52.69 52.69-52.691-23.636-52.691-52.69z"/><path fill="#9ea9b4" d="m340.421 340.838c1.006-45.674-35.029-84.323-80.679-86.115-47.882-1.879-87.435 36.529-87.435 84.002v.42c0 17.129 4.594 33.985 13.284 48.744v.001l65.89 111.906c1.898 3.224 6.556 3.24 8.476.029l66.862-111.785c8.553-14.296 13.236-30.572 13.602-47.202zm-84.84 52.613c-29.053 0-52.69-23.636-52.69-52.69s23.636-52.691 52.69-52.691 52.691 23.638 52.691 52.691-23.637 52.69-52.691 52.69z"/><circle fill="#9ea9b4" cx="427.889" cy="96.629" r="18.658"/><path fill="#9ea9b4" d="m255.581 322.102c-10.288 0-18.657 8.371-18.657 18.659s8.37 18.658 18.657 18.658c10.288 0 18.659-8.37 18.659-18.658s-8.371-18.659-18.659-18.659z"/><path fill="#9ea9b4" d="m512.729 96.709c1.006-45.674-35.029-84.325-80.678-86.116-47.883-1.879-87.435 36.529-87.435 84.002v.42c0 17.129 4.594 33.985 13.285 48.744v.001l65.89 111.906c1.898 3.224 6.556 3.24 8.476.029l66.862-111.785c8.551-14.296 13.233-30.572 13.6-47.201zm-84.84 52.61c-29.054 0-52.69-23.636-52.69-52.69s23.636-52.69 52.69-52.69 52.69 23.636 52.69 52.69-23.636 52.69-52.69 52.69z"/><path fill="#9ea9b4" d="m442.492 304.898c-.669 1.118-1.46 2.134-2.342 3.051-6.704 27.455-20.006 53.742-39.061 76.538-17.457 20.885-38.924 38.038-62.64 50.411l-28.604 47.822c45.167-12.706 86.622-39.636 117.356-76.407 33.526-40.111 51.989-89.621 51.989-139.411 0-4.519-.452-14.755-.866-21.913z"/><path fill="#9ea9b4" d="m201.846 85.88c16.851-5.388 33.834-7.761 54.53-7.761 19.731 0 37.36 2.516 54.524 7.836.846-11.65 3.393-22.833 7.387-33.309-19.583-5.795-39.654-8.558-61.911-8.558-23.274 0-42.697 2.609-61.949 8.463 4.007 10.481 6.565 21.671 7.419 33.329z"/><path fill="#9ea9b4" d="m175.535 437.883c-25.306-11.777-47.87-29.189-65.676-51.036-18.369-22.539-31.172-49.238-37.567-77.694-1.442-1.219-2.694-2.682-3.681-4.358l-34.068-57.86c-.856 7.268-.981 10.035-.981 19.966 0 51.716 17.728 101.949 49.918 141.446 30.282 37.155 72.19 63.479 118.663 74.723z"/></g></svg>