<svg height="512pt" viewBox="0 0 512 512" width="512pt" xmlns="http://www.w3.org/2000/svg"><path fill="#9ea9b4" d="m512 68v40h-68v68h-40v-68h-68v-40h68v-68h40v68zm-3.105469 148c2.046875 13.113281 3.105469 26.476562 3.105469 40 0 68.378906-26.628906 132.667969-74.980469 181.019531-48.351562 48.351563-112.640625 74.980469-181.019531 74.980469s-132.667969-26.628906-181.019531-74.980469c-48.351563-48.351562-74.980469-112.640625-74.980469-181.019531s26.628906-132.667969 74.980469-181.019531c48.351562-48.351563 112.640625-74.980469 181.019531-74.980469 13.523438 0 26.886719 1.058594 40 3.105469v40.621093c-12.96875-2.4375-26.335938-3.726562-40-3.726562-119.101562 0-216 96.898438-216 216 0 54.519531 20.316406 104.382812 53.761719 142.429688 11.683593-51.878907 47.6875-94.652344 95.363281-115.671876-19.941406-18.183593-32.472656-44.359374-32.472656-73.40625 0-54.78125 44.566406-99.351562 99.347656-99.351562s99.351562 44.566406 99.351562 99.351562c0 29.046876-12.53125 55.222657-32.472656 73.40625 47.671875 21.019532 83.675782 63.792969 95.363282 115.671876 33.441406-38.046876 53.757812-87.910157 53.757812-142.429688 0-13.664062-1.289062-27.03125-3.726562-40zm-252.894531 52.699219c32.726562 0 59.351562-26.625 59.351562-59.351563 0-32.726562-26.625-59.347656-59.351562-59.347656s-59.351562 26.625-59.351562 59.351562c0 32.722657 26.625 59.347657 59.351562 59.347657zm0 203.300781c47.09375 0 90.703125-15.160156 126.238281-40.839844-2.039062-67.871094-57.878906-122.460937-126.238281-122.460937s-124.199219 54.589843-126.238281 122.460937c35.535156 25.679688 79.144531 40.839844 126.238281 40.839844zm0 0"/></svg>